<svg width="75" height="71" viewBox="0 0 75 71" fill="none" xmlns="http://www.w3.org/2000/svg">
<rect opacity="0.25" x="0.96814" width="74" height="71" rx="6" fill="#FBE03B"/>
<g clip-path="url(#clip0_3_1058)">
<path d="M45.2657 21.2237L30.667 16.3861V48.8526L45.2657 55.1761V21.2237ZM48.5528 23.1931L56.2872 20.2103V29.0511L48.5528 32.9505V23.1931ZM42.9275 23.0248L33.0232 19.7484V47.2484L42.9131 51.6312V23.0248H42.9275ZM49.5482 49.3431C49.403 49.4123 49.2364 49.4219 49.0841 49.3699C48.9319 49.3179 48.806 49.2083 48.7335 49.0647C48.661 48.9211 48.6476 48.7548 48.6961 48.6013C48.7446 48.4479 48.8513 48.3196 48.9932 48.2438L56.0723 44.6488C56.1448 44.6049 56.2257 44.5764 56.3097 44.5652C56.3938 44.5539 56.4792 44.5602 56.5608 44.5835C56.6423 44.6068 56.7181 44.6467 56.7835 44.7007C56.8489 44.7547 56.9024 44.8217 56.9407 44.8973C56.979 44.973 57.0013 45.0557 57.0062 45.1404C57.011 45.225 56.9984 45.3098 56.9689 45.3893C56.9395 45.4688 56.894 45.5414 56.8352 45.6026C56.7764 45.6637 56.7056 45.712 56.6273 45.7445L49.5446 49.3252L49.5482 49.3431ZM49.5482 45.1429C49.403 45.2121 49.2364 45.2218 49.0841 45.1697C48.9319 45.1177 48.806 45.0081 48.7335 44.8645C48.661 44.7209 48.6476 44.5546 48.6961 44.4012C48.7446 44.2477 48.8513 44.1194 48.9932 44.0436L56.0759 40.4629C56.2211 40.3937 56.3877 40.3841 56.54 40.4361C56.6922 40.4881 56.8181 40.5977 56.8906 40.7413C56.9631 40.885 56.9765 41.0513 56.928 41.2047C56.8795 41.3581 56.7728 41.4864 56.6309 41.5622L49.5339 45.1429H49.5482ZM49.5482 40.9427C49.4023 41.0153 49.2336 41.0275 49.0788 40.9765C48.9239 40.9256 48.7954 40.8157 48.7211 40.6706C48.6475 40.5248 48.6349 40.3558 48.6859 40.2007C48.7369 40.0456 48.8475 39.9171 48.9932 39.8434L56.0759 36.2627C56.2211 36.1935 56.3877 36.1839 56.54 36.2359C56.6922 36.2879 56.8181 36.3975 56.8906 36.5411C56.9631 36.6848 56.9765 36.8511 56.928 37.0045C56.8795 37.1579 56.7728 37.2862 56.6309 37.362L49.5339 40.9427H49.5482ZM49.5482 36.7425C49.4761 36.7812 49.3971 36.8053 49.3156 36.8133C49.2342 36.8212 49.152 36.813 49.0737 36.789C48.9955 36.7651 48.9228 36.7258 48.8598 36.6736C48.7968 36.6214 48.7448 36.5572 48.7067 36.4847C48.6332 36.3389 48.6205 36.1699 48.6716 36.0148C48.7226 35.8597 48.8331 35.7312 48.9789 35.6576L56.0723 32.0446C56.1447 32.006 56.2241 31.9822 56.3058 31.9746C56.3875 31.9671 56.4699 31.976 56.5482 32.0007C56.6264 32.0255 56.6989 32.0656 56.7614 32.1188C56.8239 32.1719 56.8752 32.2371 56.9122 32.3103C56.9492 32.3836 56.9711 32.4635 56.9768 32.5454C56.9825 32.6272 56.9717 32.7094 56.9452 32.7871C56.9187 32.8647 56.8769 32.9363 56.8223 32.9976C56.7677 33.0588 56.7014 33.1086 56.6273 33.1439L49.5446 36.7246L49.5482 36.7425ZM19.8461 50.7074C19.7682 50.7496 19.6827 50.7758 19.5945 50.7844C19.5063 50.793 19.4173 50.7838 19.3328 50.7574C19.2482 50.731 19.1698 50.6879 19.1022 50.6307C19.0346 50.5734 18.9792 50.5032 18.9392 50.4242C18.8992 50.3451 18.8755 50.2589 18.8694 50.1705C18.8633 50.0821 18.875 49.9935 18.9038 49.9097C18.9326 49.8259 18.9779 49.7488 19.037 49.6828C19.0962 49.6169 19.1679 49.5635 19.2481 49.5257L26.8715 45.6478C27.0286 45.5685 27.2109 45.5549 27.3781 45.61C27.5453 45.665 27.6838 45.7843 27.7631 45.9414C27.8424 46.0986 27.856 46.2808 27.8009 46.448C27.7458 46.6152 27.6266 46.7537 27.4694 46.833L19.8317 50.711L19.8461 50.7074ZM19.8461 46.1778C19.6889 46.257 19.5067 46.2707 19.3395 46.2156C19.1723 46.1605 19.0338 46.0413 18.9545 45.8841C18.8752 45.727 18.8616 45.5447 18.9166 45.3775C18.9717 45.2103 19.0909 45.0718 19.2481 44.9925L26.8715 41.1182C26.9493 41.0789 27.0341 41.0554 27.121 41.0489C27.2079 41.0424 27.2953 41.0531 27.3781 41.0803C27.4609 41.1076 27.5375 41.1509 27.6035 41.2078C27.6696 41.2647 27.7238 41.334 27.7631 41.4118C27.8023 41.4896 27.8259 41.5744 27.8324 41.6613C27.8389 41.7483 27.8282 41.8356 27.8009 41.9184C27.7736 42.0012 27.7303 42.0778 27.6735 42.1439C27.6166 42.2099 27.5473 42.2641 27.4694 42.3034L19.8317 46.1813L19.8461 46.1778ZM19.8461 41.6481C19.6889 41.7274 19.5067 41.741 19.3395 41.686C19.1723 41.6309 19.0338 41.5117 18.9545 41.3545C18.8752 41.1973 18.8616 41.0151 18.9166 40.8479C18.9717 40.6807 19.0909 40.5422 19.2481 40.4629L26.8715 36.5886C26.9493 36.5493 27.0341 36.5257 27.121 36.5193C27.2079 36.5128 27.2953 36.5234 27.3781 36.5507C27.4609 36.578 27.5375 36.6213 27.6035 36.6782C27.6696 36.735 27.7238 36.8044 27.7631 36.8822C27.8023 36.96 27.8259 37.0448 27.8324 37.1317C27.8389 37.2186 27.8282 37.306 27.8009 37.3888C27.7736 37.4716 27.7303 37.5482 27.6735 37.6143C27.6166 37.6803 27.5473 37.7345 27.4694 37.7738L19.8317 41.6517L19.8461 41.6481ZM19.8461 37.1185C19.7682 37.1578 19.6835 37.1813 19.5965 37.1878C19.5096 37.1943 19.4223 37.1836 19.3395 37.1564C19.2567 37.1291 19.1801 37.0858 19.114 37.0289C19.0479 36.972 18.9937 36.9027 18.9545 36.8249C18.9152 36.7471 18.8917 36.6623 18.8852 36.5753C18.8787 36.4884 18.8894 36.4011 18.9166 36.3183C18.9439 36.2355 18.9872 36.1589 19.0441 36.0928C19.1009 36.0268 19.1703 35.9726 19.2481 35.9333L26.8715 32.0589C26.9505 32.0197 27.0364 31.9964 27.1244 31.9903C27.2124 31.9843 27.3008 31.9956 27.3844 32.0237C27.468 32.0518 27.5453 32.0961 27.6118 32.1541C27.6783 32.212 27.7327 32.2825 27.772 32.3615C27.8113 32.4405 27.8346 32.5265 27.8406 32.6145C27.8467 32.7025 27.8353 32.7908 27.8072 32.8745C27.7791 32.9581 27.7349 33.0353 27.6769 33.1019C27.6189 33.1684 27.5484 33.2228 27.4694 33.2621L19.8317 37.1221L19.8461 37.1185ZM19.4665 23.5117L27.2009 20.529V29.3662L19.4522 33.2621V23.5082L19.4665 23.5117ZM45.8493 20.1888L59.1768 15.0397C59.3207 14.9848 59.4805 14.9889 59.6214 15.0513C59.7622 15.1137 59.8727 15.2292 59.9288 15.3727C59.9539 15.4391 59.9672 15.5094 59.9681 15.5804V49.2393C59.9679 49.3541 59.9338 49.4663 59.8701 49.5618C59.8064 49.6574 59.716 49.732 59.6101 49.7764L46.1107 56.5798C46.0302 56.6204 45.9413 56.6415 45.8511 56.6415C45.7609 56.6415 45.672 56.6204 45.5915 56.5798L30.1049 49.8695L16.8096 56.5762C16.6723 56.6447 16.5135 56.6561 16.3679 56.6077C16.2222 56.5594 16.1017 56.4554 16.0326 56.3184C15.9904 56.2377 15.9683 56.148 15.9681 56.057V20.8011C15.9684 20.6753 16.0094 20.5529 16.0849 20.4523C16.1604 20.3516 16.2664 20.278 16.3871 20.2425L29.8399 15.0541C29.9749 14.992 30.1283 14.983 30.2696 15.029L45.835 20.1852L45.8493 20.1888ZM58.8044 16.4326L46.433 21.1986V55.1045L58.8044 48.874V16.4326ZM29.5033 16.4326L17.1319 21.1986V55.1045L29.5033 48.874V16.4326Z" fill="#FF9000"/>
</g>
<defs>
<clipPath id="clip0_3_1058">
<rect width="44" height="41.6367" fill="white" transform="translate(15.9681 15)"/>
</clipPath>
</defs>
</svg>
