<svg width="74" height="71" viewBox="0 0 74 71" fill="none" xmlns="http://www.w3.org/2000/svg">
<rect opacity="0.25" width="74" height="71" rx="6" fill="#05A46E"/>
<g clip-path="url(#clip0_3_1027)">
<path fill-rule="evenodd" clip-rule="evenodd" d="M16.9622 29.6872L36.9499 14L57.0378 29.6872H16.9622ZM30.4401 46.1764L30.4831 38.8538H29.7419V48.085C30.833 47.8115 31.9543 47.6768 33.0791 47.6839C34.1608 47.6718 35.2368 47.8412 36.2624 48.1852C35.6137 47.6607 34.8747 47.2591 34.0817 47C33.0633 46.6778 31.9906 46.5634 30.9271 46.6634C30.8683 46.6688 30.809 46.6625 30.7526 46.6449C30.6962 46.6273 30.6439 46.5987 30.5986 46.5607C30.5533 46.5228 30.516 46.4762 30.4888 46.4238C30.4616 46.3714 30.4451 46.3141 30.4401 46.2552C30.4365 46.2291 30.4365 46.2026 30.4401 46.1764ZM42.4033 36.9382C41.4336 36.8279 40.4515 36.9507 39.5387 37.2962C38.6698 37.6021 37.9252 38.1845 37.4189 38.9541V47.2435C38.1467 46.742 38.9347 46.3342 39.7643 46.0296C40.6068 45.6959 41.514 45.5576 42.4176 45.625V36.9382H42.4033ZM43.4775 37.9515H44.6986C44.8176 37.9524 44.9314 38.0004 45.0153 38.0849C45.0991 38.1694 45.1462 38.2836 45.1462 38.4027V48.7581C45.1466 48.8172 45.1354 48.8758 45.1131 48.9305C45.0908 48.9852 45.0579 49.035 45.0163 49.077C44.9747 49.1189 44.9252 49.1522 44.8707 49.1749C44.8161 49.1976 44.7577 49.2093 44.6986 49.2093C44.6485 49.2104 44.5987 49.2019 44.5518 49.1842C43.3401 48.814 42.0836 48.6105 40.8171 48.5791C39.5725 48.5618 38.3389 48.8134 37.2005 49.3167C37.1233 49.3635 37.0348 49.3882 36.9445 49.3882C36.8542 49.3882 36.7657 49.3635 36.6885 49.3167C35.5511 48.8144 34.3188 48.5628 33.0755 48.5791C31.8101 48.6108 30.5549 48.8144 29.3444 49.1842C29.2974 49.2015 29.2477 49.21 29.1976 49.2093C29.0792 49.2084 28.9659 49.1609 28.8821 49.0772C28.7984 48.9934 28.7509 48.8801 28.75 48.7617V38.4027C28.7509 38.2833 28.7988 38.1691 28.8832 38.0847C28.9676 38.0003 29.0818 37.9524 29.2012 37.9515H30.4831V36.4512C30.4835 36.3483 30.5193 36.2487 30.5845 36.1691C30.6497 36.0896 30.7403 36.0349 30.8411 36.0143C32.1375 35.7512 33.4815 35.8541 34.7227 36.3115C35.6079 36.6336 36.3838 37.1997 36.9606 37.9443C37.5545 37.2342 38.3271 36.6953 39.1986 36.3831C40.4406 35.9397 41.7743 35.8166 43.0765 36.0251C43.1834 36.0405 43.2813 36.0938 43.3523 36.1753C43.4232 36.2568 43.4626 36.361 43.4632 36.4691V37.9694L43.4775 37.9515ZM37.8415 48.1172C38.8056 47.8173 39.811 47.6711 40.8206 47.6839C41.9456 47.6754 43.067 47.8101 44.1579 48.085V38.8538H43.474V46.2266C43.4744 46.2856 43.4632 46.3442 43.4409 46.3989C43.4186 46.4537 43.3857 46.5034 43.3441 46.5454C43.3025 46.5873 43.253 46.6206 43.1985 46.6433C43.1439 46.666 43.0854 46.6777 43.0264 46.6777C42.9919 46.6814 42.957 46.6814 42.9225 46.6777C41.9573 46.5336 40.9713 46.6383 40.0579 46.9821C39.2761 47.2738 38.5338 47.6623 37.8486 48.1387L37.8415 48.1172ZM36.5059 47.154V38.9541C36.0321 38.1536 35.2918 37.5451 34.4147 37.2354C33.5045 36.879 32.5164 36.7691 31.5501 36.9167L31.5 45.6536C32.4719 45.6103 33.4434 45.7488 34.3646 46.0618C35.1325 46.3054 35.8575 46.6678 36.513 47.1361L36.5059 47.154ZM37 21.5195C37.4023 21.5195 37.7955 21.6388 38.13 21.8623C38.4644 22.0858 38.7251 22.4034 38.879 22.7751C39.033 23.1467 39.0733 23.5556 38.9948 23.9502C38.9163 24.3447 38.7226 24.7071 38.4382 24.9915C38.1537 25.276 37.7913 25.4697 37.3968 25.5482C37.0023 25.6266 36.5933 25.5864 36.2217 25.4324C35.85 25.2785 35.5324 25.0178 35.3089 24.6833C35.0854 24.3489 34.9661 23.9556 34.9661 23.5534C34.9661 23.014 35.1804 22.4967 35.5618 22.1152C35.9433 21.7338 36.4606 21.5195 37 21.5195ZM37 19.3532C37.8306 19.3532 38.6425 19.5994 39.3331 20.0608C40.0238 20.5222 40.5621 21.1779 40.8801 21.9452C41.1981 22.7125 41.2815 23.5568 41.1198 24.3715C40.958 25.1861 40.5583 25.9346 39.9713 26.5221C39.3842 27.1097 38.6361 27.51 37.8216 27.6724C37.0071 27.8349 36.1627 27.7522 35.3951 27.4349C34.6276 27.1175 33.9714 26.5797 33.5094 25.8895C33.0475 25.1992 32.8005 24.3875 32.7998 23.557C32.8036 22.4455 33.2478 21.3808 34.0351 20.5962C34.8223 19.8116 35.8885 19.3711 37 19.3711V19.3532ZM17.374 51.1429H19.5225V50.7848C19.5234 50.4261 19.6663 50.0824 19.9199 49.8288C20.1736 49.5752 20.5173 49.4323 20.876 49.4313V34.8363H18.1833V31.8786H55.7093V34.8363H53.0309V49.4134C53.3896 49.4144 53.7333 49.5573 53.987 49.8109C54.2406 50.0645 54.3835 50.4082 54.3844 50.7669V51.125H56.6188C56.8468 51.1269 57.0648 51.2185 57.2257 51.38C57.3865 51.5416 57.4773 51.76 57.4782 51.988V53.9681H58.1299C58.3578 53.969 58.5763 54.0598 58.7378 54.2206C58.8993 54.3815 58.991 54.5995 58.9928 54.8275V55.9017C58.9901 56.1297 58.8982 56.3476 58.737 56.5088C58.5758 56.67 58.3579 56.7619 58.1299 56.7646H15.863C15.6383 56.7629 15.423 56.6744 15.2622 56.5175C15.1013 56.3607 15.0074 56.1477 15 55.9232V54.849C15.0009 54.6207 15.0923 54.4021 15.254 54.2411C15.4157 54.08 15.6347 53.9896 15.863 53.9896H16.5146V52.0094C16.5156 51.7809 16.6068 51.5619 16.7684 51.4003C16.9301 51.2386 17.149 51.1474 17.3776 51.1465L17.374 51.1429ZM27.1279 51.1429H46.7754V50.7848C46.7754 50.7311 46.7754 50.6774 46.7754 50.6237C46.8187 50.3041 46.9743 50.0105 47.2145 49.7952C47.4546 49.58 47.7636 49.4574 48.0859 49.4492V34.8363H25.8066V49.4134C26.16 49.4218 26.4961 49.5681 26.743 49.8211C26.9899 50.074 27.128 50.4135 27.1279 50.7669V51.125V51.1429Z" fill="#0F6534"/>
</g>
<defs>
<clipPath id="clip0_3_1027">
<rect width="44" height="42.7861" fill="white" transform="translate(15 14)"/>
</clipPath>
</defs>
</svg>
