<svg width="74" height="71" viewBox="0 0 74 71" fill="none" xmlns="http://www.w3.org/2000/svg">
<rect opacity="0.25" width="74" height="71" rx="6" fill="#8FB8D6"/>
<g clip-path="url(#clip0_3_1036)">
<path fill-rule="evenodd" clip-rule="evenodd" d="M46.024 36.8912C49.5725 34.1878 54.6392 34.8681 57.3462 38.4166C60.0497 41.9651 59.3694 47.0319 55.8208 49.7389C52.2723 52.4423 47.2056 51.762 44.4986 48.2135C43.8003 47.2968 43.3277 46.2799 43.0735 45.2272L37.9709 45.861C37.4696 45.929 37.0113 45.5781 36.9432 45.0768C36.8752 44.5755 37.2261 44.1171 37.7274 44.0491L42.8479 43.4153C42.8156 40.9446 43.9149 38.499 46.024 36.8912ZM37.9745 17.8059C41.8059 15.9082 46.4537 17.4765 48.3514 21.3079C50.2492 25.1393 48.6809 29.7871 44.8495 31.6848C41.8739 33.1565 38.4113 32.5442 36.1233 30.4029L32.4638 33.6292C32.0878 33.9658 31.5113 33.9335 31.1747 33.5576C30.8381 33.1816 30.8703 32.6051 31.2463 32.2685L34.9452 29.0065C34.7733 28.7451 34.6158 28.4694 34.4725 28.1829C32.5748 24.3515 34.1431 19.7037 37.9745 17.8059ZM16.5832 43.4583C15.774 43.8271 15.5341 44.7438 15.6809 45.7213C15.7489 46.1689 15.8957 46.6201 16.0998 47.0533C16.3075 47.4866 16.5725 47.8841 16.8876 48.2135C17.6073 48.9726 18.5705 49.3593 19.566 48.858C19.6447 48.8222 19.7271 48.8151 19.7987 48.8401C19.8166 48.833 19.8274 48.8222 19.8524 48.8151C20.1067 48.6969 20.3358 48.5895 20.5435 48.4892C20.7798 48.3818 21.0018 48.2851 21.2131 48.192C21.3778 48.124 21.5676 48.2028 21.632 48.3603C21.6392 48.371 21.6428 48.3854 21.6428 48.3961L21.7932 48.7972C22.1799 49.8356 22.5523 50.8418 22.982 51.6331C22.9891 51.6438 23.0429 51.7584 23.1037 51.8658C23.3651 52.3671 23.6516 52.9078 23.9595 53.205C24.2317 53.4628 24.5647 53.5058 25.0158 53.0475C25.0982 52.9472 25.1805 52.8505 25.2629 52.7574C25.5279 52.4567 25.7893 52.1595 25.8501 51.762C25.7678 51.6761 25.6281 51.6403 25.4885 51.6009C25.023 51.472 24.5647 51.3502 24.5503 50.4085V50.2724C24.5503 49.9967 24.5432 49.857 24.5253 49.8033C24.5145 49.7711 24.4358 49.721 24.2889 49.6171L24.2317 49.5813C23.9416 49.3772 23.7984 49.0514 23.7554 48.6861C23.7017 48.2529 23.7769 47.7587 23.8736 47.4007C23.9022 47.2861 23.9882 47.2037 24.0992 47.1715C27.3147 46.2692 29.3915 46.5628 31.0494 46.8027C31.121 46.8134 31.1926 46.8206 31.257 46.8313C29.635 45.5602 28.1669 43.5048 27.0604 41.3349C25.8895 39.0468 25.1197 36.6263 24.9908 34.8753C23.9524 36.9736 22.0868 40.3359 16.9234 43.0823C16.9162 43.0823 16.9126 43.0895 16.9055 43.0895L16.8625 43.1074C16.8088 43.1324 16.8016 43.1289 16.7909 43.1432C16.7909 43.1611 16.8052 43.1611 16.7909 43.1933C16.7909 43.2005 16.7945 43.179 16.7479 43.29C16.7121 43.3652 16.6548 43.4189 16.5904 43.4511L16.5832 43.4583ZM30.0647 41.138C30.1721 41.9257 29.592 43.4475 29.1193 43.5371C30.1649 45.0338 31.3609 46.2942 32.6141 46.9674C32.6858 46.9638 32.743 46.9638 32.8039 46.9531C32.9149 46.9316 33.0188 46.8922 33.1298 46.7991C33.3518 46.4983 33.4592 46.0686 33.4771 45.5387C33.5165 43.913 32.6535 41.4853 31.4468 39.2008C30.2437 36.9127 28.7004 34.7822 27.3934 33.7509C26.9136 33.375 26.4768 33.1529 26.133 33.1494C26.0435 33.1494 25.9934 33.1494 25.9683 33.1673C25.9432 33.1816 25.9003 33.2281 25.8394 33.3069C25.8108 33.3427 25.7785 33.3857 25.7463 33.4358C25.7427 33.4501 25.7427 33.4537 25.7391 33.4681C25.356 34.6497 25.8609 37.0094 26.9029 39.4729C27.397 39.1542 29.7961 39.1077 30.0718 41.1344L30.0647 41.138ZM32.6679 47.6084C32.5998 47.6298 32.5318 47.6334 32.4566 47.6048C32.3993 47.6012 32.3348 47.5976 32.2704 47.5904C31.8443 47.5582 31.4182 47.5009 30.9598 47.4365C29.3986 47.2145 27.4364 46.9316 24.4501 47.7408C24.3928 48.013 24.357 48.3317 24.3892 48.6074C24.4179 48.8079 24.4787 48.9726 24.5969 49.0585L24.6542 49.0944C24.9084 49.2698 25.0373 49.3557 25.1197 49.5563C25.1949 49.7246 25.1949 49.9108 25.1985 50.2688V50.4049C25.202 50.8597 25.4348 50.9241 25.6639 50.9886C25.9647 51.0709 26.2619 51.1497 26.4553 51.5221C26.4875 51.5758 26.5018 51.6367 26.5018 51.7083C26.466 52.3815 26.1044 52.7897 25.7427 53.1907C25.6639 53.2766 25.5816 53.3733 25.51 53.4593L25.4921 53.4807C24.7007 54.3115 24.0634 54.1969 23.5191 53.6813C23.1288 53.3125 22.8244 52.7252 22.5308 52.1809C22.5057 52.1344 22.4807 52.0843 22.4091 51.9554C21.9686 51.1318 21.5855 50.1005 21.188 49.0406L21.1486 48.9296C21.0341 48.9834 20.9123 49.0335 20.7977 49.0872C20.5614 49.1946 20.3322 49.2985 20.1174 49.4059C20.0852 49.4166 20.0708 49.4309 20.0565 49.4381C19.9133 49.5169 19.856 49.5563 19.7128 49.5097C18.4631 50.0719 17.2815 49.5885 16.4113 48.6682C16.0533 48.2887 15.7453 47.8304 15.5126 47.3434C15.2798 46.8564 15.1187 46.3336 15.0399 45.8251C14.8609 44.6113 15.1724 43.469 16.1965 42.9427C16.2359 42.846 16.261 42.7994 16.3218 42.7314C16.3899 42.6598 16.4507 42.6311 16.5689 42.5631L16.6119 42.5452C16.619 42.5452 16.6226 42.538 16.6226 42.538C21.9292 39.72 23.6265 36.2252 24.5969 34.2343C24.8654 33.6793 25.0803 33.2389 25.3166 32.9309C25.4312 32.7806 25.5207 32.6839 25.6532 32.6158C25.7857 32.5478 25.9289 32.5192 26.1294 32.5263C26.6307 32.5335 27.1858 32.8056 27.7766 33.2675C29.1552 34.3525 30.7593 36.5582 31.9983 38.9179C33.2444 41.2848 34.1431 43.8235 34.1001 45.5638C34.0822 46.2405 33.9319 46.8098 33.6024 47.2216C33.5917 47.236 33.5809 47.2503 33.563 47.2574C33.3446 47.4544 33.1298 47.5475 32.897 47.5869C32.8147 47.5976 32.7323 47.6083 32.6571 47.6119L32.6679 47.6084ZM39.1382 24.6738L41.2473 22.7115C41.2043 22.6328 41.1721 22.5468 41.147 22.4609C40.9107 21.6767 41.3583 20.8496 42.1425 20.6132C42.9266 20.3769 43.7538 20.8245 43.9901 21.6087C44.2264 22.3929 43.7789 23.22 42.9947 23.4563C42.6832 23.5494 42.368 23.5351 42.0816 23.4384L39.8651 25.5009C39.8723 25.526 39.883 25.5511 39.8902 25.5761C39.9045 25.6191 39.9152 25.6621 39.9224 25.7086L42.6688 26.1741C42.8514 25.8626 43.1486 25.6119 43.5246 25.5009C44.3088 25.2646 45.136 25.7122 45.3723 26.4964C45.6086 27.2806 45.161 28.1077 44.3768 28.344C43.5927 28.5804 42.7655 28.1328 42.5292 27.3486C42.522 27.3199 42.5113 27.2877 42.5041 27.2591L39.7255 26.79C39.5429 27.0872 39.2528 27.3199 38.8912 27.4274C38.107 27.6637 37.2798 27.2161 37.0435 26.4319C36.8072 25.6477 37.2548 24.8206 38.0389 24.5843C38.4221 24.4625 38.8124 24.5091 39.1382 24.6738ZM52.5158 40.7906L54.3313 40.5579C54.8827 40.4863 55.3947 40.8802 55.4664 41.4352L55.6955 43.2112C55.7671 43.7662 55.3733 44.2747 54.8182 44.3463L54.0376 44.4466C54.2059 44.8763 54.3921 45.2558 54.8541 45.5673C54.0376 45.4671 53.3752 45.1376 52.8488 44.597L52.7128 44.6149C52.6591 44.622 52.6054 44.6256 52.5481 44.6256C52.8166 44.3463 52.9849 44.0133 52.9419 43.6839L52.8453 42.9427L52.7593 42.2731L52.6161 41.1666C52.5982 41.0341 52.5624 40.9088 52.5158 40.7906ZM47.4742 40.6438L50.285 40.2822C51.0513 40.1855 51.7567 40.7298 51.857 41.496L52.1148 43.5048C52.1685 43.913 51.9286 44.3069 51.5813 44.6041C51.259 44.8798 50.8293 45.0839 50.4712 45.1305L50.4426 45.1341C50.2313 45.4814 49.9699 45.7893 49.662 46.0543C49.3218 46.3479 48.9208 46.5878 48.4624 46.7669C48.3765 46.7991 48.2763 46.7884 48.2011 46.7203C48.0936 46.6272 48.0829 46.4661 48.176 46.3587C48.3586 46.1474 48.4696 45.9397 48.5448 45.7285C48.5842 45.6103 48.6164 45.4886 48.6379 45.3632L48.0901 45.4348C47.7069 45.485 47.3381 45.374 47.0552 45.152C46.7723 44.9335 46.5718 44.6041 46.5217 44.221L46.2639 42.2122C46.1636 41.4495 46.7079 40.7441 47.4742 40.6438Z" fill="#4378BC"/>
</g>
<defs>
<clipPath id="clip0_3_1036">
<rect width="44" height="37.0856" fill="white" transform="translate(15 17)"/>
</clipPath>
</defs>
</svg>
