<svg width="74" height="71" viewBox="0 0 74 71" fill="none" xmlns="http://www.w3.org/2000/svg">
<rect width="74" height="71" rx="6" fill="#000851"/>
<g clip-path="url(#clip0_535_2164)">
<path d="M44.2975 21.2233L29.6989 16.3857V48.8522L44.2975 55.1758V21.2233ZM47.5846 23.1927L55.319 20.2099V29.0508L47.5846 32.9502V23.1927ZM41.9593 23.0244L32.055 19.748V47.248L41.945 51.6308V23.0244H41.9593ZM48.5801 49.3428C48.4348 49.412 48.2683 49.4216 48.116 49.3695C47.9637 49.3175 47.8379 49.208 47.7654 49.0643C47.6929 48.9207 47.6794 48.7544 47.728 48.601C47.7765 48.4476 47.8831 48.3193 48.0251 48.2435L55.1042 44.6484C55.1767 44.6045 55.2575 44.576 55.3416 44.5648C55.4256 44.5536 55.5111 44.5598 55.5926 44.5831C55.6742 44.6065 55.75 44.6464 55.8154 44.7004C55.8807 44.7544 55.9343 44.8213 55.9726 44.8969C56.0109 44.9726 56.0332 45.0553 56.038 45.14C56.0429 45.2247 56.0302 45.3094 56.0008 45.3889C55.9714 45.4685 55.9258 45.5411 55.8671 45.6022C55.8083 45.6633 55.7375 45.7116 55.6592 45.7441L48.5765 49.3248L48.5801 49.3428ZM48.5801 45.1426C48.4348 45.2118 48.2683 45.2214 48.116 45.1694C47.9637 45.1173 47.8379 45.0078 47.7654 44.8641C47.6929 44.7205 47.6794 44.5542 47.728 44.4008C47.7765 44.2474 47.8831 44.1191 48.0251 44.0433L55.1077 40.4625C55.253 40.3933 55.4196 40.3837 55.5718 40.4357C55.7241 40.4878 55.8499 40.5973 55.9225 40.741C55.995 40.8846 56.0084 41.0509 55.9599 41.2043C55.9113 41.3577 55.8047 41.486 55.6628 41.5618L48.5658 45.1426H48.5801ZM48.5801 40.9424C48.4341 41.0149 48.2655 41.0271 48.1106 40.9761C47.9558 40.9252 47.8273 40.8153 47.7529 40.6702C47.6794 40.5244 47.6667 40.3554 47.7178 40.2003C47.7688 40.0452 47.8793 39.9167 48.0251 39.8431L55.1077 36.2623C55.253 36.1931 55.4196 36.1835 55.5718 36.2355C55.7241 36.2876 55.8499 36.3971 55.9225 36.5408C55.995 36.6844 56.0084 36.8507 55.9599 37.0041C55.9113 37.1575 55.8047 37.2858 55.6628 37.3616L48.5658 40.9424H48.5801ZM48.5801 36.7422C48.508 36.7809 48.4289 36.8049 48.3475 36.8129C48.2661 36.8209 48.1838 36.8126 48.1056 36.7887C48.0274 36.7647 47.9546 36.7255 47.8917 36.6732C47.8287 36.621 47.7766 36.5568 47.7386 36.4844C47.6651 36.3386 47.6524 36.1695 47.7034 36.0144C47.7545 35.8593 47.865 35.7308 48.0107 35.6572L55.1042 32.0442C55.1766 32.0056 55.256 31.9818 55.3377 31.9743C55.4194 31.9667 55.5018 31.9756 55.58 32.0003C55.6583 32.0251 55.7308 32.0652 55.7933 32.1184C55.8558 32.1716 55.9071 32.2367 55.944 32.31C55.981 32.3832 56.003 32.4631 56.0087 32.545C56.0143 32.6269 56.0036 32.709 55.9771 32.7867C55.9505 32.8644 55.9087 32.9359 55.8541 32.9972C55.7995 33.0585 55.7333 33.1082 55.6592 33.1435L48.5765 36.7243L48.5801 36.7422ZM18.8779 50.707C18.8001 50.7492 18.7145 50.7754 18.6264 50.784C18.5382 50.7926 18.4492 50.7834 18.3647 50.757C18.2801 50.7306 18.2017 50.6875 18.1341 50.6303C18.0665 50.5731 18.011 50.5029 17.971 50.4238C17.9311 50.3448 17.9073 50.2585 17.9012 50.1702C17.8952 50.0818 17.9069 49.9931 17.9357 49.9093C17.9645 49.8256 18.0098 49.7484 18.0689 49.6825C18.128 49.6165 18.1998 49.5631 18.2799 49.5254L25.9033 45.6474C26.0605 45.5681 26.2427 45.5545 26.4099 45.6096C26.5771 45.6647 26.7156 45.7839 26.7949 45.9411C26.8742 46.0982 26.8878 46.2805 26.8328 46.4477C26.7777 46.6149 26.6585 46.7534 26.5013 46.8327L18.8636 50.7106L18.8779 50.707ZM18.8779 46.1774C18.7208 46.2567 18.5385 46.2703 18.3713 46.2152C18.2041 46.1602 18.0656 46.0409 17.9863 45.8838C17.907 45.7266 17.8934 45.5444 17.9485 45.3772C18.0035 45.2099 18.1228 45.0715 18.2799 44.9922L25.9033 41.1178C25.9811 41.0786 26.0659 41.055 26.1529 41.0485C26.2398 41.042 26.3271 41.0527 26.4099 41.08C26.4927 41.1072 26.5693 41.1505 26.6354 41.2074C26.7015 41.2643 26.7557 41.3336 26.7949 41.4114C26.8342 41.4893 26.8577 41.5741 26.8642 41.661C26.8707 41.7479 26.86 41.8353 26.8328 41.918C26.8055 42.0008 26.7622 42.0775 26.7053 42.1435C26.6485 42.2096 26.5791 42.2638 26.5013 42.303L18.8636 46.181L18.8779 46.1774ZM18.8779 41.6478C18.7208 41.7271 18.5385 41.7407 18.3713 41.6856C18.2041 41.6305 18.0656 41.5113 17.9863 41.3541C17.907 41.197 17.8934 41.0147 17.9485 40.8475C18.0035 40.6803 18.1228 40.5418 18.2799 40.4625L25.9033 36.5882C25.9811 36.5489 26.0659 36.5254 26.1529 36.5189C26.2398 36.5124 26.3271 36.5231 26.4099 36.5503C26.4927 36.5776 26.5693 36.6209 26.6354 36.6778C26.7015 36.7347 26.7557 36.804 26.7949 36.8818C26.8342 36.9596 26.8577 37.0444 26.8642 37.1314C26.8707 37.2183 26.86 37.3056 26.8328 37.3884C26.8055 37.4712 26.7622 37.5478 26.7053 37.6139C26.6485 37.6799 26.5791 37.7342 26.5013 37.7734L18.8636 41.6513L18.8779 41.6478ZM18.8779 37.1181C18.8001 37.1574 18.7153 37.181 18.6284 37.1875C18.5415 37.1939 18.4541 37.1833 18.3713 37.156C18.2885 37.1287 18.2119 37.0854 18.1459 37.0285C18.0798 36.9717 18.0256 36.9023 17.9863 36.8245C17.9471 36.7467 17.9235 36.6619 17.917 36.575C17.9105 36.4881 17.9212 36.4007 17.9485 36.3179C17.9757 36.2351 18.0191 36.1585 18.0759 36.0925C18.1328 36.0264 18.2021 35.9722 18.2799 35.9329L25.9033 32.0586C25.9823 32.0193 26.0683 31.996 26.1563 31.9899C26.2443 31.9839 26.3326 31.9953 26.4163 32.0233C26.4999 32.0514 26.5772 32.0957 26.6437 32.1537C26.7102 32.2117 26.7646 32.2821 26.8039 32.3611C26.8431 32.4401 26.8665 32.5261 26.8725 32.6141C26.8785 32.7021 26.8672 32.7905 26.8391 32.8741C26.811 32.9577 26.7667 33.035 26.7088 33.1015C26.6508 33.168 26.5803 33.2224 26.5013 33.2617L18.8636 37.1217L18.8779 37.1181ZM18.4984 23.5114L26.2327 20.5286V29.3659L18.484 33.2617V23.5078L18.4984 23.5114ZM44.8812 20.1885L58.2087 15.0394C58.3526 14.9844 58.5124 14.9886 58.6532 15.0509C58.7941 15.1133 58.9046 15.2289 58.9606 15.3724C58.9858 15.4388 58.9991 15.5091 59 15.5801V49.2389C58.9998 49.3537 58.9657 49.4659 58.902 49.5615C58.8383 49.657 58.7478 49.7316 58.6419 49.776L45.1426 56.5794C45.0621 56.62 44.9732 56.6412 44.883 56.6412C44.7928 56.6412 44.7039 56.62 44.6234 56.5794L29.1367 49.8691L15.8415 56.5758C15.7042 56.6444 15.5454 56.6557 15.3997 56.6074C15.2541 56.5591 15.1335 56.455 15.0645 56.318C15.0222 56.2373 15.0001 56.1477 15 56.0566V20.8008C15.0003 20.6749 15.0412 20.5526 15.1167 20.4519C15.1922 20.3512 15.2982 20.2777 15.4189 20.2422L28.8717 15.0537C29.0067 14.9916 29.1601 14.9827 29.3014 15.0286L44.8669 20.1849L44.8812 20.1885ZM57.8363 16.4323L45.4648 21.1982V55.1041L57.8363 48.8737V16.4323ZM28.5352 16.4323L16.1637 21.1982V55.1041L28.5352 48.8737V16.4323Z" fill="#FF9000"/>
</g>
<defs>
<clipPath id="clip0_535_2164">
<rect width="44" height="41.6367" fill="white" transform="translate(15 15)"/>
</clipPath>
</defs>
</svg>
