<svg width="74" height="71" viewBox="0 0 74 71" fill="none" xmlns="http://www.w3.org/2000/svg">
<rect width="74" height="71" rx="6" fill="#000851"/>
<g clip-path="url(#clip0_3_1243)">
<path d="M41.2965 56.5204C40.8297 57.3202 40.1868 57.944 39.452 58.3687C38.7977 58.7514 38.0667 58.9695 37.3358 59.0155C36.5934 59.0614 35.8434 58.9198 35.1584 58.5907C34.6916 58.3611 34.2553 58.0435 33.8688 57.6302L41.2965 56.5204ZM42.3259 48.6718L42.0848 49.8006L42.0236 50.6043L32.3304 52.0469C32.296 51.4691 32.2042 50.8453 32.0587 50.1986L42.3259 48.6718ZM42.0045 52.3646L42.0121 52.8506L42.0236 53.0189C42.0504 53.3366 42.0542 53.658 42.0351 53.9756L41.8897 54.6759L32.8892 56.0153L32.7323 55.6556L32.3802 54.2167L32.3725 53.7996L42.0045 52.3646Z" fill="#5C546A"/>
<path d="M36.7197 13.4695C36.7312 13.0524 36.9072 12.6812 37.1866 12.4171C37.4583 12.1569 37.8333 12 38.2389 12.0038V12C38.2734 12 38.3078 12.0038 38.3423 12.0077C38.7211 12.0383 39.0617 12.2105 39.3066 12.4669C39.5668 12.7386 39.7237 13.1098 39.7199 13.5192H39.7237C39.7237 13.546 39.7237 13.5728 39.7199 13.5958L39.6395 16.7987H39.6434C39.6434 16.8332 39.6395 16.8676 39.6357 16.9021C39.6051 17.2847 39.4329 17.6215 39.1765 17.8664C38.901 18.1266 38.5298 18.2835 38.1241 18.2797V18.2835C38.0897 18.2835 38.0553 18.2797 38.0208 18.2759C37.6381 18.2453 37.3014 18.0731 37.0565 17.8167C36.7963 17.5411 36.6394 17.1699 36.6432 16.7643H36.6394C36.6394 16.7375 36.6394 16.7107 36.6432 16.6878L36.7197 13.4695ZM20.456 19.0795C20.1537 18.7963 19.993 18.4175 19.9777 18.0348C19.9624 17.6521 20.0963 17.2618 20.3757 16.9595C20.6588 16.6572 21.0377 16.4964 21.4204 16.4811C21.803 16.4658 22.1934 16.5998 22.4957 16.8791L24.8989 19.1178C25.2012 19.4009 25.3619 19.7798 25.3772 20.1625C25.3925 20.549 25.2586 20.9355 24.9792 21.2378C24.6961 21.5401 24.3172 21.7008 23.9345 21.7161C23.548 21.7314 23.1615 21.5975 22.8592 21.3181L20.456 19.0795ZM16.5259 35.5958C16.1203 35.6034 15.7491 35.4465 15.4736 35.1901C15.1942 34.9261 15.0144 34.5587 14.9991 34.1416C14.9838 33.7283 15.1407 33.3456 15.4047 33.0663C15.6688 32.7869 16.0361 32.6071 16.4532 32.5956L19.7328 32.4846C20.1461 32.4693 20.5287 32.6262 20.8081 32.8902C21.0874 33.1543 21.2673 33.5217 21.2788 33.9388V33.9617H21.2826L21.2788 34.0153C21.2711 34.4018 21.1181 34.75 20.8731 35.0141C20.6091 35.2934 20.2417 35.4695 19.8246 35.4848H19.8016V35.4886H19.7672L16.5259 35.5958ZM57.3574 30.9463L57.4071 30.9424C57.7975 30.9195 58.161 31.0457 58.4442 31.2754C58.7427 31.5164 58.9455 31.8762 58.9914 32.2856V32.3009C58.9953 32.3009 58.9953 32.343 58.9953 32.3507C59.0182 32.741 58.8919 33.1045 58.6623 33.3877C58.4212 33.6862 58.0615 33.889 57.6521 33.9349L54.3878 34.2794C53.9745 34.3214 53.5842 34.1913 53.2896 33.9503C52.9911 33.7092 52.7844 33.3495 52.7423 32.94C52.7002 32.5305 52.8303 32.1364 53.0714 31.8417C53.3125 31.5432 53.6722 31.3366 54.0817 31.2945C55.1723 31.1759 56.2668 31.0496 57.3574 30.9463ZM50.894 17.8855C51.1274 17.5411 51.4719 17.3268 51.8469 17.2503C52.2219 17.1776 52.6237 17.2465 52.9719 17.4761L52.9758 17.4799C53.3202 17.7095 53.5383 18.0577 53.611 18.4328C53.6837 18.8078 53.6148 19.2096 53.3852 19.5578L51.5599 22.2863C51.3303 22.6307 50.982 22.8488 50.6032 22.9254C50.2282 22.9981 49.8264 22.9292 49.4781 22.6996C49.1337 22.47 48.9156 22.1179 48.839 21.7429C48.7663 21.3679 48.8352 20.9661 49.0648 20.6178L50.894 17.8855Z" fill="white"/>
<path d="M28.9165 43.5557C27.8144 42.2967 26.6741 40.9879 25.771 39.0631C24.887 37.165 24.3972 35.2057 24.4125 33.1699C24.4316 31.134 24.9482 29.037 26.0733 26.871C26.0809 26.8557 26.0886 26.8442 26.0962 26.8289C27.5695 24.3339 29.6321 22.6654 31.9282 21.7317C33.8531 20.9434 35.9463 20.6755 37.9974 20.863C40.0409 21.0505 42.0423 21.6934 43.7911 22.7266C46.0145 24.043 47.8437 25.9947 48.8501 28.4591C49.3935 29.7947 49.7609 31.2833 49.8068 32.9135C49.8527 34.5398 49.5734 36.2925 48.8233 38.1446C47.6753 40.9879 44.9927 44.034 43.2363 46.8314C43.1406 46.8122 43.0411 46.8084 42.9416 46.8237C39.1569 47.3862 35.3723 47.9488 31.5876 48.5113C30.9639 46.6553 30.0072 44.8032 28.9165 43.5557ZM41.2004 26.1478C41.0244 26.0253 40.8216 25.9679 40.6149 26.01C40.4083 26.0521 40.2361 26.1592 40.1136 26.3353L39.421 27.3149C39.1722 27.2039 38.9197 27.1236 38.6442 27.0547C38.3686 26.9858 38.1161 26.9322 37.8405 26.8902L37.6224 25.612C37.5803 25.3939 37.4732 25.2332 37.3124 25.1107C37.1326 24.9883 36.9451 24.9462 36.7269 24.9883L35.1235 25.2753C34.9169 25.3174 34.7562 25.413 34.6222 25.5891C34.4998 25.7689 34.4462 25.9564 34.4845 26.1745L34.6911 27.3455C34.4309 27.4565 34.1898 27.579 33.9564 27.7244C33.7229 27.8621 33.4933 28.0267 33.2905 28.1874L32.2037 27.4374C32.0239 27.3149 31.8364 27.2575 31.6335 27.2996C31.4269 27.3417 31.2547 27.4489 31.1322 27.6287L30.2062 28.9489C30.0837 29.125 30.0301 29.3278 30.0684 29.5344C30.1105 29.7526 30.2176 29.9133 30.3975 30.0357L31.3733 30.7284C31.2623 30.9733 31.182 31.2297 31.1131 31.5052C31.0442 31.7807 30.9906 32.0333 30.9486 32.3088L29.6704 32.527C29.4523 32.5691 29.2916 32.6762 29.1691 32.8369C29.0467 33.0168 29.0046 33.2043 29.0467 33.4224L29.3337 35.0258C29.3758 35.2325 29.4714 35.3932 29.6436 35.5271C29.8235 35.6496 30.011 35.707 30.2291 35.6649L31.4001 35.4583C31.5111 35.7185 31.6335 35.9596 31.779 36.193C31.9167 36.4264 32.0813 36.656 32.242 36.8741L31.4919 37.9456C31.3695 38.1217 31.3159 38.313 31.3542 38.5158C31.3963 38.7225 31.5034 38.8947 31.6795 39.0171L33.015 39.9547C33.1949 40.0771 33.3938 40.1192 33.6005 40.0771C33.8071 40.035 33.9793 39.9394 34.1171 39.7672L34.8136 38.776C35.0623 38.887 35.3149 38.9674 35.5904 39.0363C35.8659 39.1051 36.1185 39.1587 36.394 39.2008L36.6121 40.4789C36.6542 40.6971 36.7614 40.8578 36.9221 40.9803C37.102 41.1027 37.2895 41.1448 37.5076 41.1027L39.111 40.8157C39.3177 40.7736 39.4784 40.6779 39.6123 40.5057C39.7348 40.3297 39.7922 40.1384 39.7501 39.9202L39.5434 38.7493C39.8037 38.6383 40.0447 38.5158 40.2782 38.3704C40.5116 38.2326 40.7412 38.0719 40.9593 37.9074L42.0347 38.6574C42.2107 38.7799 42.402 38.8334 42.6201 38.7952C42.8383 38.7531 42.999 38.6459 43.1215 38.4699L44.059 37.1344C44.1815 36.9583 44.2236 36.7555 44.1815 36.5489C44.1394 36.3422 44.0437 36.17 43.8677 36.0323L42.8765 35.3511C42.9875 35.1062 43.0679 34.8498 43.1368 34.5743C43.2056 34.2987 43.2592 34.0424 43.3013 33.7707L44.5794 33.5525C44.7976 33.5104 44.9583 33.4033 45.0807 33.2387C45.1917 33.0704 45.23 32.8828 45.1917 32.6647L44.9047 31.0613C44.8626 30.8547 44.767 30.6939 44.5947 30.56C44.4149 30.4376 44.2274 30.3801 44.0093 30.4222L42.8383 30.6289C42.7273 30.3801 42.6048 30.1391 42.4594 29.8942C42.3217 29.6454 42.1571 29.4311 41.9964 29.2283L42.7464 28.1415C42.8689 27.9655 42.9225 27.7741 42.8842 27.5713C42.8421 27.3647 42.7349 27.1925 42.5589 27.07L41.2387 26.1439L41.2004 26.1478ZM36.5318 29.9324C36.9527 29.8635 37.3775 29.8635 37.7984 29.9592C38.2041 30.0549 38.5753 30.2194 38.912 30.449C39.2373 30.6825 39.5243 30.9771 39.7577 31.3368C39.9912 31.6889 40.1366 32.0869 40.2055 32.5078C40.2743 32.9288 40.2743 33.3535 40.1787 33.7745C40.083 34.1801 39.9185 34.5513 39.6889 34.8881C39.4554 35.2133 39.1608 35.5003 38.801 35.7338C38.449 35.9672 38.051 36.1126 37.6301 36.1815C37.2091 36.2504 36.7843 36.2504 36.3634 36.1547C35.9578 36.0591 35.5866 35.8945 35.2498 35.6649C34.9245 35.4315 34.6375 35.1368 34.4041 34.7809C34.1707 34.4289 34.0253 34.0309 33.9564 33.6099C33.8875 33.189 33.8875 32.7642 33.9832 32.3433C34.0788 31.9376 34.2434 31.5664 34.473 31.2297C34.7064 30.9044 35.0049 30.6174 35.3608 30.384C35.7205 30.1505 36.1108 29.9975 36.5318 29.9324Z" fill="#3FFEBD"/>
</g>
<defs>
<clipPath id="clip0_3_1243">
<rect width="44" height="47.0231" fill="white" transform="translate(15 12)"/>
</clipPath>
</defs>
</svg>
