<svg width="74" height="71" viewBox="0 0 74 71" fill="none" xmlns="http://www.w3.org/2000/svg">
<rect width="74" height="71" rx="6" fill="#000851"/>
<g clip-path="url(#clip0_3_1257)">
<path fill-rule="evenodd" clip-rule="evenodd" d="M19.5277 49.8131L19.6373 30.1488H17.4188V55.1723C20.4688 54.3862 23.5301 53.8835 26.6142 53.8646C29.4601 53.8457 32.3097 54.2426 35.1594 55.2101C33.3869 53.7739 31.4102 52.7195 29.3013 52.0316C26.6444 51.1661 23.772 50.8789 20.8279 51.1321C20.1627 51.185 19.5807 50.6899 19.524 50.0285C19.5202 49.9492 19.5202 49.8811 19.5277 49.8131ZM37 12C42.9186 12 47.7902 16.5051 48.3723 22.2687C49.9747 22.2649 52.3785 22.3481 53.4858 22.5106C54.0868 22.5975 54.5138 23.1153 54.5138 23.7049V27.7337H54.5176H57.7906C58.4558 27.7337 58.9962 28.2742 58.9962 28.9394V56.7445C58.9962 57.4135 58.4558 57.954 57.7906 57.954C57.6545 57.954 57.5222 57.9313 57.3975 57.8897C54.0301 56.926 50.6891 56.2872 47.3745 56.2646C44.1469 56.2419 40.9193 56.8126 37.6765 58.2412C37.4762 58.3735 37.2381 58.4453 36.9887 58.4453C36.7468 58.4491 36.5049 58.3773 36.3008 58.2412C33.0618 56.8088 29.8342 56.2419 26.6028 56.2646C23.292 56.2872 19.951 56.926 16.5798 57.8897C16.4589 57.9313 16.3266 57.954 16.1905 57.954C15.5405 57.954 15 57.4173 15 56.7483V28.9394C15 28.2742 15.5405 27.7337 16.2056 27.7337H19.6449L19.6676 23.7011C19.6714 23.1191 20.0795 22.6428 20.6276 22.5257C21.6707 22.3065 24.0819 22.178 25.6391 22.1515C26.2778 16.4408 31.1192 12 37 12ZM48.3647 24.6875C47.7827 30.0089 43.5497 34.2305 38.2245 34.8012V52.9047C40.273 51.5365 42.3668 50.414 44.5173 49.6468C46.9701 48.7738 49.491 48.358 52.1026 48.5659V29.1208C52.095 29.0641 52.0874 28.9998 52.0874 28.9394C52.0874 28.8789 52.0912 28.8184 52.1026 28.7579V24.7744C51.324 24.6988 49.7215 24.6686 48.3647 24.6875ZM35.8095 34.805C30.4238 34.2457 26.1493 29.9485 25.6239 24.5515C24.3087 24.5552 22.8045 24.6119 22.0713 24.714L21.9352 48.6377C24.732 48.5394 27.4683 48.8909 30.0421 49.7337C32.0905 50.4027 34.0294 51.3778 35.8095 52.6703V34.805ZM39.3962 55.0249C42.0644 54.1859 44.7289 53.842 47.3896 53.8571C50.4736 53.876 53.535 54.3824 56.5849 55.1685V30.1488H54.5176V49.9227C54.5176 50.5916 53.9772 51.1283 53.312 51.1283C53.2137 51.1283 53.123 51.117 53.0323 51.0981C50.3905 50.6824 47.828 51.0263 45.3298 51.9182C43.3192 52.6363 41.3426 53.7097 39.3962 55.0249ZM40.3448 30.2773H33.6552V29.151H34.9138V22.2725H33.6552V21.3767H36.7808C37.5707 21.3767 38.3493 21.2823 39.1165 21.0895V29.151H40.3448V30.2773ZM37.4498 15.923C37.9675 15.923 38.3757 16.0742 38.6743 16.369C38.9691 16.6638 39.1165 17.072 39.1165 17.5935C39.1165 18.1227 38.8633 18.5951 38.353 19.007C37.8428 19.419 37.2457 19.6269 36.5729 19.6269C36.0627 19.6269 35.6621 19.4833 35.3522 19.1998C35.0423 18.9126 34.8873 18.5384 34.8873 18.0735C34.8873 17.4877 35.1405 16.9851 35.6432 16.558C36.1421 16.1347 36.7468 15.923 37.4498 15.923Z" fill="#FF6F71"/>
</g>
<defs>
<clipPath id="clip0_3_1257">
<rect width="44" height="46.4415" fill="white" transform="translate(15 12)"/>
</clipPath>
</defs>
</svg>
