<svg width="74" height="71" viewBox="0 0 74 71" fill="none" xmlns="http://www.w3.org/2000/svg">
<rect width="74" height="71" rx="6" fill="#000851"/>
<g clip-path="url(#clip0_3_1268)">
<path d="M17.0303 20.6279H24.0521L25.3447 15.0742H20.1455L17.0303 20.6279ZM16.2926 49.0911H57.7074C58.0496 49.093 58.3773 49.2298 58.6193 49.4718C58.8613 49.7138 58.9981 50.0415 59 50.3838V56.138C58.9991 56.4806 58.8626 56.8088 58.6204 57.051C58.3781 57.2932 58.0499 57.4297 57.7074 57.4307H16.2926C15.9501 57.4297 15.6219 57.2932 15.3797 57.051C15.1374 56.8088 15.0009 56.4806 15 56.138V50.3838C15.0009 50.0412 15.1374 49.713 15.3797 49.4708C15.6219 49.2286 15.9501 49.0921 16.2926 49.0911ZM29.681 41.7721L29.7275 33.5114H28.7751V44.0208C30.0345 43.6808 31.3308 43.4956 32.6351 43.4694C33.8519 43.4572 35.0621 43.6484 36.2158 44.0352C35.4839 43.444 34.6503 42.9914 33.7559 42.6995C32.6066 42.3373 31.3962 42.2095 30.1966 42.3236C30.0674 42.3267 29.9419 42.2802 29.846 42.1936C29.7501 42.107 29.691 41.9869 29.681 41.8581C29.6775 41.8295 29.6775 41.8007 29.681 41.7721ZM43.3451 33.0817C43.3433 33.0567 43.3433 33.0315 43.3451 33.0065C43.3431 32.9815 43.3431 32.9563 43.3451 32.9313V31.2555C42.1823 31.1337 41.007 31.2769 39.9076 31.6745C38.9259 32.0166 38.0849 32.6738 37.5156 33.5436V43.0684C38.3375 42.5064 39.2249 42.0471 40.1582 41.7005C41.1758 41.3231 42.2625 41.168 43.3451 41.2458V33.0817ZM44.362 32.498H45.737C45.8712 32.499 45.9996 32.553 46.0942 32.6482C46.1888 32.7435 46.2419 32.8723 46.2419 33.0065V44.6833C46.2419 44.8175 46.1888 44.9463 46.0942 45.0415C45.9996 45.1368 45.8712 45.1908 45.737 45.1917C45.6809 45.1915 45.6252 45.1819 45.5723 45.1631C44.2071 44.7462 42.7918 44.5162 41.3649 44.4792C39.9637 44.4618 38.5751 44.7463 37.2936 45.3135C37.2065 45.3675 37.1061 45.396 37.0036 45.3958C36.9022 45.3966 36.8027 45.368 36.7171 45.3135C35.4354 44.747 34.047 44.4625 32.6458 44.4792C31.217 44.5121 29.7993 44.7385 28.4313 45.1523C28.3797 45.1711 28.3251 45.1808 28.2702 45.181C28.1353 45.181 28.006 45.1274 27.9106 45.0321C27.8153 44.9367 27.7617 44.8074 27.7617 44.6725V33.0065C27.7617 32.8717 27.8153 32.7423 27.9106 32.647C28.006 32.5516 28.1353 32.498 28.2702 32.498H29.7025V30.8044C29.7026 30.6889 29.7426 30.5771 29.8157 30.4877C29.8887 30.3983 29.9904 30.3369 30.1035 30.3138C31.5647 30.0163 33.0799 30.1316 34.4792 30.6468C35.4724 31.0119 36.3416 31.6513 36.9857 32.4909C37.6558 31.6899 38.5271 31.0818 39.5101 30.7292C40.91 30.2231 42.4149 30.0778 43.8857 30.3066C44.0137 30.3148 44.1339 30.3709 44.2222 30.4639C44.3105 30.5568 44.3604 30.6797 44.362 30.8079V32.498ZM38.0098 43.9564C39.0969 43.6185 40.2302 43.453 41.3685 43.4658C42.6728 43.492 43.969 43.6772 45.2285 44.0173V33.5114H44.362V41.8151C44.362 41.95 44.3084 42.0793 44.2131 42.1746C44.1177 42.27 43.9884 42.3236 43.8535 42.3236C43.8143 42.3288 43.7746 42.3288 43.7354 42.3236C42.6482 42.1664 41.5389 42.2896 40.5127 42.6816C39.626 43.0097 38.784 43.4476 38.0062 43.985L38.0098 43.9564ZM36.5059 42.9681V33.5293C35.97 32.6283 35.1349 31.944 34.1462 31.5957C33.0558 31.1961 31.8833 31.0731 30.7337 31.2376L30.6764 41.2852C31.8299 41.2365 32.9829 41.3929 34.0817 41.7471C34.9496 42.0274 35.7678 42.4431 36.5059 42.9788V42.9681ZM56.1784 26.9945V47.974H52.0606V27.4062C50.9692 26.9957 50.066 26.1995 49.5218 25.1683C49.3046 25.579 49.0297 25.9564 48.7054 26.2891L48.6768 26.3213C48.2403 26.7594 47.7216 27.1071 47.1504 27.3443C46.5793 27.5815 45.9669 27.7036 45.3485 27.7036C44.73 27.7036 44.1176 27.5815 43.5465 27.3443C42.9753 27.1071 42.4567 26.7594 42.0202 26.3213C41.6823 25.9815 41.3975 25.5928 41.1751 25.1683C40.9512 25.5916 40.6651 25.979 40.3265 26.3177C39.8908 26.7566 39.3726 27.105 38.8017 27.3427C38.2307 27.5804 37.6184 27.7028 37 27.7028C36.3816 27.7028 35.7693 27.5804 35.1983 27.3427C34.6274 27.105 34.1092 26.7566 33.6735 26.3177C33.3349 25.979 33.0488 25.5916 32.8249 25.1683C32.6102 25.5805 32.335 25.9583 32.0085 26.2891L31.9798 26.3213C31.5433 26.7594 31.0247 27.1071 30.4535 27.3443C29.8824 27.5815 29.27 27.7036 28.6515 27.7036C28.0331 27.7036 27.4207 27.5815 26.8496 27.3443C26.2784 27.1071 25.7597 26.7594 25.3232 26.3213C24.9854 25.9815 24.7005 25.5928 24.4782 25.1683C23.9366 26.2016 23.0326 26.9986 21.9395 27.4062V47.974H17.8288V26.9945C17.5202 26.8016 17.2344 26.5745 16.9766 26.3177C16.5387 25.8814 16.1912 25.363 15.954 24.7922C15.7168 24.2214 15.5946 23.6094 15.5944 22.9912V21.1257C15.5981 21.0426 15.6214 20.9616 15.6624 20.8893L19.3649 14.2757C19.4114 14.1929 19.479 14.1239 19.5607 14.0754C19.6424 14.027 19.7354 14.001 19.8304 14H53.8724C53.9738 14.0004 54.0731 14.0296 54.1586 14.0841C54.2442 14.1386 54.3125 14.2162 54.3558 14.3079L58.3268 20.8571C58.3688 20.9256 58.3945 21.0027 58.402 21.0827V22.9661C58.4004 24.2143 57.9033 25.4108 57.0199 26.2926C56.7668 26.5576 56.4845 26.793 56.1784 26.9945ZM41.1393 15.0742L41.6764 20.6279H48.8379L47.3555 15.0742H41.1393ZM40.5807 20.6279L40.0436 15.0742H33.9564L33.4157 20.6279H40.5807ZM32.3451 20.6279L32.8643 15.0742H26.4583L25.1693 20.6279H32.3451ZM48.4655 15.0742L49.9336 20.6279H56.9375L53.5716 15.0742H48.4655ZM50.0589 21.7021V22.9912C50.0886 23.9358 50.4847 24.8319 51.1633 25.4896C51.842 26.1473 52.75 26.5151 53.6952 26.5151C54.6403 26.5151 55.5483 26.1473 56.227 25.4896C56.9056 24.8319 57.3017 23.9358 57.3314 22.9912V21.7021H50.0589ZM41.7122 21.7021V22.9912C41.7098 23.7108 41.9215 24.4149 42.3203 25.0139C42.7192 25.6129 43.2872 26.0797 43.9521 26.3549C44.617 26.6302 45.3487 26.7014 46.0542 26.5596C46.7598 26.4178 47.4071 26.0694 47.9141 25.5586L47.9427 25.5371C48.6089 24.8569 48.9828 23.9433 48.9847 22.9912V21.7021H41.7122ZM33.362 21.7021V22.9912C33.362 23.9561 33.7453 24.8814 34.4275 25.5637C35.1098 26.2459 36.0351 26.6292 37 26.6292C37.9649 26.6292 38.8902 26.2459 39.5725 25.5637C40.2547 24.8814 40.638 23.9561 40.638 22.9912V21.7021H33.362ZM25.026 21.7021V22.9912C25.0268 23.7086 25.24 24.4097 25.6388 25.006C26.0375 25.6023 26.604 26.0671 27.2668 26.3418C27.9295 26.6164 28.6587 26.6886 29.3624 26.5493C30.0661 26.4099 30.7127 26.0651 31.2207 25.5586L31.2458 25.5371C31.9136 24.858 32.2878 23.9437 32.2878 22.9912V21.7021H25.026ZM23.9518 21.7021H16.6686V22.9912C16.6983 23.9358 17.0944 24.8319 17.7731 25.4896C18.4517 26.1473 19.3597 26.5151 20.3049 26.5151C21.25 26.5151 22.158 26.1473 22.8367 25.4896C23.5153 24.8319 23.9114 23.9358 23.9411 22.9912V21.7021H23.9518Z" fill="#FF629B"/>
</g>
<defs>
<clipPath id="clip0_3_1268">
<rect width="44" height="43.4307" fill="white" transform="translate(15 14)"/>
</clipPath>
</defs>
</svg>
