<svg width="74" height="71" viewBox="0 0 74 71" fill="none" xmlns="http://www.w3.org/2000/svg">
<rect opacity="0.25" width="74" height="71" rx="6" fill="#EC8B84"/>
<g clip-path="url(#clip0_3_1047)">
<path fill-rule="evenodd" clip-rule="evenodd" d="M25.654 15H52.9094C53.5091 15 54 15.4972 54 16.1044V46.9078C53.9506 47.7686 52.8534 47.7887 51.6672 47.7353H25.2521C23.6112 47.7353 22.2702 49.0933 22.2702 50.7549C22.2702 52.4165 23.6112 53.7745 25.2521 53.7745H51.6672V50.5614H54V54.6453C54 55.3894 53.4003 55.9967 52.6656 55.9967H25.3674C22.4152 56 20 53.5543 20 50.5647V20.7256C20 17.5758 22.5437 15 25.654 15ZM37.9671 19.6879C44.5733 19.6879 49.9275 25.1099 49.9275 31.7997C49.9275 38.4896 44.5733 43.9115 37.9671 43.9115C31.3608 43.9115 26.0066 38.4896 26.0066 31.7997C26.0066 25.1099 31.3608 19.6879 37.9671 19.6879ZM37.2982 27.2353C37.4959 27.3053 37.7232 27.342 37.9736 27.342C38.2372 27.342 38.4646 27.3053 38.6656 27.2353C38.8567 27.1685 39.028 27.0651 39.1763 26.9283C39.318 26.8015 39.43 26.648 39.4992 26.4745C39.575 26.2944 39.6112 26.0908 39.6112 25.8606C39.6112 25.627 39.575 25.4168 39.4992 25.2367C39.43 25.0632 39.3213 24.9097 39.1763 24.7762L39.1697 24.7695C39.0247 24.6327 38.8501 24.5293 38.659 24.4592C38.458 24.3892 38.2306 24.3525 37.9671 24.3525C37.7133 24.3525 37.486 24.3892 37.2949 24.4592C37.1071 24.526 36.9423 24.6294 36.7941 24.7662L36.7842 24.7762C36.6392 24.9097 36.5305 25.0665 36.4613 25.2367C36.3855 25.4168 36.3493 25.6237 36.3493 25.8606C36.3493 26.0908 36.3855 26.2944 36.4613 26.4745C36.5305 26.638 36.6326 26.7848 36.7644 26.9083C36.771 26.915 36.7809 26.9183 36.7842 26.925C36.9292 27.0618 37.1038 27.1652 37.2949 27.2319V27.2353H37.2982ZM35.1928 37.5687V39.247H40.7974V37.5687H40.6722C40.5568 37.5687 40.4415 37.5387 40.3229 37.4719C40.2306 37.4219 40.145 37.3551 40.0659 37.2684C39.9835 37.1883 39.9143 37.0949 39.8649 37.0015C39.8023 36.8847 39.7694 36.7679 39.7694 36.6545V29.9913C39.7694 29.7244 39.7397 29.5375 39.6738 29.4274C39.6474 29.3874 39.6145 29.3674 39.5585 29.3674H35.1334V31.2025H35.3213C35.4366 31.2025 35.5585 31.2392 35.6738 31.3059C35.7562 31.3526 35.832 31.4127 35.9044 31.4961C35.9143 31.5028 35.9209 31.5128 35.9308 31.5228C36.0132 31.6095 36.0725 31.6963 36.1186 31.783C36.1746 31.8965 36.2043 32.0066 36.2043 32.12V36.6545C36.2043 36.7612 36.1779 36.8647 36.1285 36.9714L36.112 37.0015C36.0659 37.0882 36.0066 37.175 35.9242 37.2617C35.8418 37.3485 35.7562 37.4219 35.6705 37.4719C35.5552 37.5387 35.4399 37.5687 35.318 37.5687H35.1928Z" fill="#DE3065"/>
</g>
<defs>
<clipPath id="clip0_3_1047">
<rect width="34" height="41" fill="white" transform="translate(20 15)"/>
</clipPath>
</defs>
</svg>
