<svg width="74" height="71" viewBox="0 0 74 71" fill="none" xmlns="http://www.w3.org/2000/svg">
<rect opacity="0.25" width="74" height="71" rx="6" fill="#D05C29"/>
<g clip-path="url(#clip0_3_1068)">
<path fill-rule="evenodd" clip-rule="evenodd" d="M45.4682 28.0725V25.1114C45.6047 24.5389 45.7943 24.482 46.0787 24.4289C46.8445 24.3114 46.7573 27.8791 45.4682 28.0725ZM46.3896 47.4507C46.3858 47.4204 46.382 47.39 46.382 47.3521C46.382 47.3218 46.3858 47.2877 46.3896 47.2573V45.1645C44.6607 45.0242 42.8711 45.1834 41.3128 45.6877C39.8531 46.1578 38.5981 46.9237 37.7829 48.027V56.7436C39.0531 56.027 40.3498 55.7085 41.6844 55.3028C43.2047 54.8441 44.7706 54.6242 46.3896 54.7379V47.4507ZM36.2853 56.8991V48.0118C35.5005 46.8403 34.2341 46.0554 32.8009 45.5891C31.1782 45.0621 29.3545 44.9445 27.7621 45.1341L27.6787 54.7796C29.4114 54.7265 31.11 54.9123 32.7024 55.3559C33.9763 55.7047 35.182 56.2204 36.2853 56.8991ZM48.1109 57.1455C46.5488 56.8384 44.9981 56.645 43.4588 56.6374C41.4569 56.6261 39.455 57.7332 37.4455 58.4839C37.3204 58.5521 37.1725 58.59 37.0209 58.59C36.8692 58.59 36.7213 58.5559 36.5924 58.4839C31.7545 56.6678 31.1327 56.1104 25.8891 57.1531C25.8891 54.1427 25.9953 52.1787 26.0938 50.2071H17.2787C15.8493 50.1047 15.1213 49.3616 15 48.0839C15.4929 45.8886 15.6104 44.4137 16.9678 42.6242C17.5137 41.9038 18.1886 41.3692 18.9393 40.9559C21.3128 39.6327 28.8919 39.246 31.0455 37.3047L33.4758 44.4517C33.9725 44.6185 34.4502 44.8194 34.9014 45.0583L36.0009 41.2479L35.1896 40.3607C34.8256 39.8261 34.7422 39.3559 34.9469 38.9578C35.3867 38.0858 36.2967 38.2488 37.1498 38.2488C38.0408 38.2488 39.1403 38.082 39.4209 39.1929C39.5156 39.5645 39.3943 39.955 39.1365 40.3607L38.3251 41.2479L39.4209 45.0507C39.8417 44.8498 40.2853 44.6716 40.7479 44.5237L42.9697 37.3085C45.1232 39.246 52.7024 39.6365 55.072 40.9597C55.819 41.3806 56.5014 41.9114 57.0474 42.628C58.4047 44.4175 58.5185 45.8924 59.0152 48.0877C58.8938 49.3692 58.1659 50.1085 56.7365 50.2147H47.982C48.0427 52.1938 48.1109 54.1085 48.1109 57.1455ZM32.0047 24.8687C31.8417 24.9332 31.6673 24.8308 31.6066 24.6526C31.5498 24.4668 31.637 24.2659 31.8 24.2052C33.0512 23.7199 33.9422 23.7502 35.1972 24.2052C35.3602 24.2659 35.4512 24.463 35.4019 24.6488C35.3526 24.8346 35.1744 24.937 35.0152 24.8801C34.8066 24.8081 34.5981 24.7398 34.3896 24.6943C34.4123 24.7663 34.4237 24.846 34.4237 24.9294C34.4237 25.4109 34.037 25.8052 33.5479 25.8052C33.0663 25.8052 32.672 25.4109 32.672 24.9294C32.672 24.8081 32.6948 24.6981 32.7365 24.5957C32.3687 24.6336 32.3763 24.7246 32.0047 24.8687ZM39.1706 24.8687C39.0076 24.9332 38.8332 24.8308 38.7725 24.6526C38.7156 24.4668 38.8028 24.2659 38.9659 24.2052C40.2133 23.7199 41.1081 23.7502 42.363 24.2052C42.5261 24.2659 42.6171 24.463 42.5678 24.6488C42.5185 24.8346 42.3403 24.937 42.181 24.8801C41.9725 24.8081 41.764 24.7398 41.5555 24.6943C41.5782 24.7663 41.5896 24.846 41.5896 24.9294C41.5896 25.4109 41.1991 25.8052 40.7137 25.8052C40.2322 25.8052 39.8417 25.4109 39.8417 24.9294C39.8417 24.8081 39.8645 24.6981 39.9062 24.5957C39.5308 24.6336 39.5422 24.7246 39.1706 24.8687ZM36.0275 28.7929C35.8796 28.6678 35.8569 28.4441 35.982 28.2962C36.1071 28.1483 36.3308 28.1256 36.4787 28.2507C36.6569 28.4024 36.8275 28.4782 36.9867 28.4782C37.1498 28.482 37.328 28.4062 37.5175 28.2469C37.6654 28.1218 37.8891 28.1483 38.0142 28.2962C38.1393 28.4441 38.1166 28.6678 37.9649 28.7929C37.6427 29.0583 37.309 29.1872 36.9791 29.1796C36.6455 29.1758 36.3308 29.0431 36.0275 28.7929ZM39.6787 31.4659C39.3905 31.5645 39.091 31.6479 38.7839 31.7161C38.4654 31.8033 38.1772 31.8564 37.9194 31.864C37.6237 31.8678 37.3697 31.8147 37.1687 31.682C37.1081 31.6403 37.0512 31.5986 37.0019 31.5493C36.9526 31.5948 36.8995 31.6403 36.8351 31.682C36.6341 31.8185 36.3801 31.8716 36.0844 31.864C35.8265 31.8564 35.5346 31.8071 35.2199 31.7161C34.9128 31.6479 34.6133 31.5645 34.3213 31.4659C34.0332 31.3673 33.7488 31.2536 33.4758 31.1246C33.3431 31.064 33.29 30.9161 33.3583 30.791C33.4 30.719 33.472 30.6697 33.5517 30.6583C33.6995 30.6355 33.8171 30.6204 33.927 30.6052L33.9346 30.6014C34.291 30.5521 34.5602 30.5142 34.8938 30.3815C34.9886 30.3436 35.0796 30.3019 35.1706 30.2602C35.7014 30.0137 36.2815 29.7483 36.8616 30.2071C36.9109 30.2488 36.9564 30.2867 36.9981 30.3322C37.0398 30.2867 37.0853 30.2488 37.1346 30.2071C37.7109 29.7445 38.2948 30.0137 38.8256 30.2602C38.9166 30.3019 39.0076 30.3436 39.1024 30.3815C39.436 30.5142 39.709 30.5521 40.0616 30.6014L40.073 30.6052C40.1829 30.6204 40.3005 30.6355 40.4483 30.6583C40.528 30.6735 40.6038 30.719 40.6417 30.791C40.71 30.9123 40.6569 31.064 40.5242 31.1246C40.2512 31.2536 39.9668 31.3673 39.6787 31.4659ZM26.7801 18.8896V17.5815C27.0531 15.3142 28.1071 14.4043 29.8436 14.6659C31.4891 12.9445 33.8171 11.9815 37.0246 12.0043C40.5924 11.9322 43.637 12.7663 45.8436 15.0299C47.0038 16.1863 47.5005 17.3919 47.2009 19.9398C47.2616 22.4384 47.5384 22.6431 46.727 23.0829C46.7232 23.1512 46.7194 23.2194 46.7156 23.2915L46.1583 23.6441C46.6095 23.61 46.9242 23.8905 47.1137 24.3682C47.2047 24.6071 47.2654 24.8991 47.2919 25.2175C47.3147 25.5133 47.3109 25.8431 47.2692 26.1768C47.1365 27.39 46.5791 28.6564 45.5479 28.8043C45.5024 28.8118 45.4569 28.8118 45.4152 28.8081V28.9635C45.4152 28.9711 45.4152 28.9787 45.4152 28.9863C45.4834 30.681 44.5886 32.5616 43.1441 34.0668C40.5166 36.8081 36.2019 38.173 32.4521 35.0678C31.8 34.5256 31.0417 33.9948 30.4464 33.1569C30.454 33.1493 30.4616 33.1417 30.4654 33.1379L30.4502 33.1265C29.4834 32.228 29.0284 31.8033 28.6417 29.9569C28.6341 29.9227 28.6303 29.881 28.6303 29.8469V28.8081C28.5773 28.8194 28.5204 28.8194 28.4635 28.8081C27.4284 28.6564 26.8749 27.39 26.7422 26.1806C26.7081 25.8469 26.7005 25.5171 26.7194 25.2213C26.746 24.9028 26.8066 24.6109 26.8976 24.372C27.1024 23.8526 27.4588 23.5645 27.9706 23.663C28.2171 23.7085 28.4445 23.8336 28.6303 24.0498V23.6289L28.2133 23.3938C28.164 23.0526 28.1564 22.7076 28.1791 22.355C27.4246 21.0924 26.837 19.864 26.7801 18.8896ZM44.3005 23.1095C43.8076 21.7256 43.1555 21.5701 41.9649 20.8422C40.9678 20.41 40.0919 20.0422 39.2616 19.7806C37.2483 19.3332 35.0379 19.4621 33.2066 20.0725C32.7213 20.2621 32.2019 20.4934 31.6483 20.7701C30.4806 21.4526 29.9384 21.5209 29.6919 22.6848V29.8393C30.109 31.8336 30.0787 31.4621 31.3564 32.7133L33.5744 34.882C33.9763 35.2118 34.4275 35.4052 34.9052 35.519C36.5469 35.9057 39.9934 35.7502 41.2863 34.3891C43.2123 32.5161 44.4256 31.9512 44.2891 28.9559V23.1095H44.3005ZM35.182 33.1493C35.0227 33.0621 34.9621 32.8611 35.0455 32.7057C35.1327 32.5464 35.3336 32.482 35.4891 32.5692C35.9972 32.8384 36.4938 32.9749 36.9867 32.9787C37.4758 32.9787 37.9687 32.846 38.4616 32.573C38.6209 32.4858 38.8218 32.5427 38.909 32.7019C38.9962 32.8611 38.9393 33.0583 38.7801 33.1493C38.1886 33.4754 37.5934 33.6384 36.9905 33.6308C36.3839 33.627 35.781 33.4678 35.182 33.1493ZM28.5355 28.0725V25.1114C28.3991 24.5389 28.236 24.5123 27.9554 24.4592C27.1934 24.3417 27.2085 27.7881 28.5355 28.0725Z" fill="#8B181B"/>
</g>
<defs>
<clipPath id="clip0_3_1068">
<rect width="44" height="46.5896" fill="white" transform="translate(15 12)"/>
</clipPath>
</defs>
</svg>
