<svg width="15" height="16" viewBox="0 0 15 16" fill="none" xmlns="http://www.w3.org/2000/svg">
<path d="M11.008 10.0669C11.9158 8.82813 12.3224 7.29232 12.1465 5.76668C11.9705 4.24105 11.225 2.83811 10.0591 1.83854C8.89316 0.83897 7.39281 0.316485 5.85821 0.375616C4.3236 0.434747 2.86791 1.07113 1.78236 2.15746C0.696818 3.24378 0.0614736 4.69993 0.0034406 6.23458C-0.0545924 7.76922 0.468966 9.26919 1.46937 10.4344C2.46978 11.5996 3.87325 12.3441 5.39901 12.519C6.92476 12.6938 8.46028 12.2861 9.69836 11.3775H9.69742C9.72555 11.415 9.75555 11.4506 9.7893 11.4853L13.3987 15.0947C13.5745 15.2706 13.8129 15.3695 14.0616 15.3695C14.3103 15.3696 14.5489 15.2709 14.7248 15.0951C14.9007 14.9193 14.9996 14.6809 14.9996 14.4322C14.9997 14.1835 14.901 13.945 14.7252 13.769L11.1159 10.1597C11.0823 10.1257 11.0463 10.0944 11.008 10.0659V10.0669ZM11.2499 6.46311C11.2499 7.14024 11.1166 7.81073 10.8574 8.43632C10.5983 9.0619 10.2185 9.63032 9.73969 10.1091C9.26089 10.5879 8.69247 10.9677 8.06689 11.2269C7.4413 11.486 6.7708 11.6194 6.09368 11.6194C5.41655 11.6194 4.74605 11.486 4.12046 11.2269C3.49488 10.9677 2.92646 10.5879 2.44766 10.1091C1.96885 9.63032 1.58905 9.0619 1.32992 8.43632C1.0708 7.81073 0.937426 7.14024 0.937426 6.46311C0.937426 5.09558 1.48067 3.78407 2.44766 2.81709C3.41464 1.8501 4.72615 1.30686 6.09368 1.30686C7.4612 1.30686 8.77271 1.8501 9.73969 2.81709C10.7067 3.78407 11.2499 5.09558 11.2499 6.46311Z" fill="white"/>
</svg>
